{"title":"Welcome.To.The.Punch.2013.HDrip.720p.AC3.KSTE","uid":9017908,"size":1625275066,"categoryP":"video","categoryS":"hd___movies","magnet":"?xt=urn:btih:e760a555867a9af2cc0a71d42889bd55037b7f76&amp;dn=Welcome.To.The.Punch.2013.HDrip.720p.AC3.KSTE&amp;tr=udp%3A%2F%2Ftracker.openbittorrent.com%3A80&amp;tr=udp%3A%2F%2Fopen.demonii.com%3A1337&amp;tr=udp%3A%2F%2Ftracker.coppersurfer.tk%3A6969&amp;tr=udp%3A%2F%2Fexodus.desync.com%3A6969","seeders":1,"leechers":0,"uploader":"jessketeer","files":-1,"time":1381227270,"description":"VIETNAMESE HARCODE SUB!\nVIETNAMESE HARCODE SUB!\nVIETNAMESE HARCODE SUB!\nVIETNAMESE HARCODE SUB!\nVIETNAMESE HARCODE SUB!\n\n\n\n\nFormat                                   : Matroska\nFormat version                           : Version 2\nFile size                                : 1.51 GiB\nDuration                                 : 1h 35mn\nOverall bit rate                         : 2 259 Kbps\nWriting application                      : Lavf54.59.106\nWriting library                          : Lavf54.59.106\n\nVideo\nID                                       : 1\nFormat                                   : AVC\nFormat/Info                              : Advanced Video Codec\nFormat profile                           : &lt;a class=&quot;__cf_email__&quot; href=&quot;/cdn-cgi/l/email-protection&quot; data-cfemail=&quot;9cd4f5fbf4dcd0a8b2ac&quot;&gt;[email&amp;#160;protected]&lt;/a&gt;&lt;script cf-hash='f9e31' type=&quot;text/javascript&quot;&gt;\n/* &lt;![CDATA[ */!function(){try{var t=&quot;currentScript&quot;in document?document.currentScript:function(){for(var t=document.getElementsByTagName(&quot;script&quot;),e=t.length;e--;)if(t[e].getAttribute(&quot;cf-hash&quot;))return t[e]}();if(t&amp;&amp;t.previousSibling){var e,r,n,i,c=t.previousSibling,a=c.getAttribute(&quot;data-cfemail&quot;);if(a){for(e=&quot;&quot;,r=parseInt(a.substr(0,2),16),n=2;a.length-n;n+=2)i=parseInt(a.substr(n,2),16)^r,e+=String.fromCharCode(i);e=document.createTextNode(e),c.parentNode.replaceChild(e,c)}}}catch(u){}}();/* ]]&gt; */&lt;/script&gt;\nFormat settings, CABAC                   : Yes\nFormat settings, ReFrames                : 4 frames\nCodec ID                                 : V_MPEG4/ISO/AVC\nDuration                                 : 1h 35mn\nBit rate                                 : 1 894 Kbps\nNominal bit rate                         : 6 846 Kbps\nWidth                                    : 1 280 pixels\nHeight                                   : 528 pixels\nDisplay aspect ratio                     : 2.40:1\nFrame rate mode                          : Constant\nFrame rate                               : 29.970 fps\nColor space                              : YUV\nChroma subsampling                       : 4:2:0\nBit depth                                : 8 bits\nScan type                                : Progressive\nBits/(Pixel*Frame)                       : 0.094\nStream size                              : 1.27 GiB (84%)\nWriting library                          : x264 core 133 r2334 a3ac64b\nForced                                   : No\n\nAudio\nID                                       : 2\nFormat                                   : AC-3\nFormat/Info                              : Audio Coding 3\nMode extension                           : CM (complete main)\nFormat settings, Endianness              : Big\nCodec ID                                 : A_AC3\nDuration                                 : 1h 35mn\nBit rate mode                            : Constant\nBit rate                                 : 320 Kbps\nChannel(s)                               : 2 channels\nChannel positions                        : Front: L R\nSampling rate                            : 48.0 KHz\nBit depth                                : 16 bits\nCompression mode                         : Lossy\nStream size                              : 220 MiB (14%)\nDefault                                  : Yes\nForced                                   : No\n","torrent":{"xt":"urn:btih:e760a555867a9af2cc0a71d42889bd55037b7f76","amp;dn":"Welcome.To.The.Punch.2013.HDrip.720p.AC3.KSTE","amp;tr":["udp%3A%2F%2Ftracker.openbittorrent.com%3A80","udp%3A%2F%2Fopen.demonii.com%3A1337","udp%3A%2F%2Ftracker.coppersurfer.tk%3A6969","udp%3A%2F%2Fexodus.desync.com%3A6969"],"infoHash":"e760a555867a9af2cc0a71d42889bd55037b7f76","infoHashBuffer":{"type":"Buffer","data":[231,96,165,85,134,122,154,242,204,10,113,212,40,137,189,85,3,123,127,118]},"announce":[],"urlList":[]}}